<svg xmlns="http://www.w3.org/2000/svg" viewBox="0 0 100 100">
  <defs>
    <linearGradient id="grad" x1="0%" y1="0%" x2="100%" y2="100%">
      <stop offset="0%" style="stop-color:#6366f1;stop-opacity:1" />
      <stop offset="100%" style="stop-color:#8b5cf6;stop-opacity:1" />
    </linearGradient>
  </defs>
  <rect width="100" height="100" rx="20" fill="url(#grad)"/>
  <path d="M50 25 C40 25 32 33 32 43 L32 48 L28 48 C25 48 23 50 23 53 L23 73 C23 76 25 78 28 78 L72 78 C75 78 77 76 77 73 L77 53 C77 50 75 48 72 48 L68 48 L68 43 C68 33 60 25 50 25 Z M50 32 C56 32 61 37 61 43 L61 48 L39 48 L39 43 C39 37 44 32 50 32 Z M50 56 C53 56 55 58 55 61 C55 63 54 64 52 65 L52 68 C52 69 51 70 50 70 C49 70 48 69 48 68 L48 65 C46 64 45 63 45 61 C45 58 47 56 50 56 Z" fill="white"/>
</svg>
